<?xml version="1.0" standalone="no"?>
<!DOCTYPE svg PUBLIC "-//W3C//DTD SVG 20010904//EN"
 "http://www.w3.org/TR/2001/REC-SVG-20010904/DTD/svg10.dtd">
<svg version="1.0" xmlns="http://www.w3.org/2000/svg"
 width="602.000000pt" height="612.000000pt" viewBox="0 0 602.000000 612.000000"
 preserveAspectRatio="xMidYMid meet">
<metadata>
Created by potrace 1.16, written by Peter Selinger 2001-2019
</metadata>
<g transform="translate(0.000000,612.000000) scale(0.100000,-0.100000)"
fill="#000000" stroke="none">
<path d="M2840 6099 c-292 -13 -648 -90 -905 -196 -76 -31 -323 -152 -391
-192 -58 -33 -193 -122 -233 -152 -14 -11 -53 -40 -86 -65 -33 -25 -59 -50
-57 -56 1 -5 -1 -7 -6 -4 -13 8 -93 -64 -86 -76 4 -7 2 -8 -5 -4 -13 8 -182
-157 -297 -289 -150 -173 -365 -498 -348 -526 4 -8 3 -9 -4 -5 -18 11 -192
-368 -200 -434 0 -3 -5 -17 -11 -32 -6 -16 -7 -28 -2 -28 9 0 56 118 54 138 0
6 3 12 7 12 4 0 15 21 25 47 10 26 20 43 22 38 2 -6 -24 -87 -56 -181 -115
-330 -161 -572 -166 -864 -3 -168 -2 -182 6 -100 36 375 63 529 130 765 38
133 117 345 159 423 27 52 25 25 -4 -39 -38 -86 -113 -313 -145 -439 -47 -184
-81 -409 -86 -565 l-4 -140 9 115 c22 275 67 500 157 780 89 276 320 685 516
915 80 93 300 302 412 392 352 279 775 474 1215 558 274 52 297 55 435 55 176
0 395 -16 505 -36 482 -87 889 -260 1233 -521 31 -24 62 -41 67 -38 6 4 9 2 8
-3 -3 -8 52 -59 222 -208 93 -82 189 -199 350 -429 211 -301 380 -719 444
-1100 40 -239 49 -346 42 -545 -5 -189 -20 -370 -33 -400 -3 -8 -5 -19 -4 -23
8 -37 -74 -360 -139 -548 -114 -333 -344 -709 -599 -983 -52 -55 -57 -64 -26
-39 22 17 62 54 88 82 26 27 47 49 47 47 0 -2 30 27 67 65 36 38 68 67 71 64
9 -9 -63 -117 -139 -209 -41 -50 -122 -136 -180 -190 -57 -55 -103 -103 -102
-108 2 -4 -2 -7 -7 -5 -16 3 -209 -146 -202 -157 3 -5 1 -6 -5 -3 -6 4 -54
-23 -108 -58 -87 -58 -136 -93 -96 -70 10 5 12 4 7 -4 -9 -14 -100 -72 -166
-106 -27 -14 -50 -28 -50 -31 0 -14 306 155 420 231 131 87 305 227 403 323
73 72 264 291 298 342 14 21 38 53 53 70 14 17 23 36 20 41 -7 11 127 230 137
223 4 -2 6 2 5 9 0 6 30 74 67 150 142 288 236 587 278 887 10 74 23 171 29
216 12 84 10 445 -2 416 -4 -10 -7 -1 -7 24 -1 45 -25 228 -41 319 -49 265
-165 597 -294 840 -70 132 -195 339 -207 343 -5 2 -9 8 -9 14 0 11 -71 102
-132 171 -21 23 -38 46 -38 52 1 9 10 0 85 -86 144 -164 321 -459 429 -717 79
-189 186 -575 186 -677 0 -24 2 -27 11 -15 8 11 9 4 5 -29 -3 -30 -1 -40 5
-30 6 10 9 4 9 -20 0 -19 3 -32 6 -28 8 8 -23 242 -48 357 -11 52 -35 141 -53
197 -26 83 -30 103 -18 107 8 3 11 1 8 -4 -4 -6 7 -54 23 -108 82 -266 122
-484 137 -752 11 -178 -15 -494 -59 -735 -8 -44 -17 -102 -20 -130 -2 -27 -16
-90 -31 -138 -14 -48 -23 -93 -19 -100 4 -7 3 -9 -1 -4 -5 4 -28 -46 -51 -110
-107 -302 -295 -639 -476 -855 -21 -27 -36 -53 -33 -58 4 -6 3 -9 -2 -8 -5 2
-76 -65 -158 -148 -147 -148 -278 -263 -397 -346 -37 -26 -55 -45 -49 -51 15
-15 320 224 313 246 -1 4 1 6 6 3 11 -7 193 173 284 282 129 152 311 411 320
452 2 8 6 17 9 20 7 6 77 129 101 180 72 148 148 339 151 380 1 15 6 26 11 22
5 -3 7 2 3 10 -3 9 1 28 9 43 8 15 11 31 8 36 -3 5 1 9 8 9 8 1 5 7 -7 17 -16
13 -17 15 -2 10 14 -5 16 -2 11 21 -4 22 -3 24 6 12 10 -12 11 -11 7 8 -3 12
-1 22 5 22 6 0 7 11 4 26 -4 15 -3 23 3 20 11 -7 19 12 16 44 -1 14 2 28 7 31
5 3 10 20 12 37 1 17 5 35 9 38 4 4 7 21 7 38 0 17 7 44 15 60 8 15 13 32 10
36 -3 5 1 10 7 12 10 4 13 80 13 344 -1 372 -11 475 -75 759 -36 157 -100 365
-112 365 -5 0 -7 4 -4 9 7 10 -73 205 -108 265 -13 23 -37 66 -53 96 -50 91
-69 120 -77 113 -4 -4 -5 -1 -2 7 7 19 -126 206 -143 202 -7 -1 -9 2 -6 8 17
27 -291 376 -322 365 -7 -2 -10 2 -7 9 5 12 -130 144 -186 183 -14 9 -36 28
-50 40 -14 13 -31 21 -38 18 -7 -3 -11 -1 -8 4 8 13 -62 63 -76 55 -6 -4 -8
-3 -4 4 16 27 -482 313 -520 298 -8 -3 -13 -2 -9 3 11 18 -403 168 -432 157
-8 -3 -11 -1 -8 4 3 6 -5 11 -19 11 -34 2 -39 3 -54 13 -7 4 -25 5 -38 2 -19
-5 -24 -3 -18 5 5 9 2 10 -11 5 -11 -4 -22 -1 -27 6 -8 11 -10 11 -15 0 -3 -8
-9 -10 -16 -3 -18 14 -148 38 -272 50 -161 15 -280 18 -455 10z m620 -52 c8
-3 69 -15 135 -27 66 -13 188 -45 270 -73 83 -27 158 -50 167 -51 9 0 15 -3
12 -7 -2 -4 13 -14 34 -22 20 -8 82 -37 137 -63 55 -26 102 -48 105 -49 3 0
24 -13 47 -28 24 -15 45 -27 48 -27 3 0 42 -23 88 -52 45 -28 88 -51 94 -51 7
0 11 -2 8 -5 -2 -3 28 -27 68 -55 89 -62 205 -159 315 -262 85 -80 122 -126
84 -106 -10 5 -35 28 -55 50 -19 21 -37 39 -39 38 -2 -1 -2 -1 -1 1 0 2 -19
21 -43 44 -26 24 -48 37 -55 32 -7 -4 -9 -3 -6 3 9 15 -107 113 -239 203 -171
117 -384 242 -384 225 0 -3 -7 0 -15 8 -20 21 -284 131 -385 161 -149 44 -322
84 -435 101 -60 9 -111 18 -114 20 -5 6 139 -2 159 -8z"/>
<path d="M2748 3753 c-20 -2 -41 -9 -46 -16 -10 -14 -142 -380 -142 -396 0
-14 0 -14 51 8 102 45 211 37 348 -25 l73 -34 72 34 c89 43 167 60 241 54 52
-4 56 -3 39 10 -15 10 -38 13 -98 8 -44 -3 -82 -9 -85 -13 -3 -5 -17 -9 -31
-11 -14 -1 -47 -13 -73 -27 -27 -14 -51 -25 -53 -25 -3 0 -3 84 -2 187 l3 187
32 19 c37 21 184 40 194 24 4 -5 18 -7 32 -3 21 5 30 0 51 -26 14 -18 26 -28
26 -21 0 6 -5 15 -10 18 -6 4 -8 11 -5 16 8 12 -43 31 -66 24 -11 -4 -19 -2
-19 6 0 21 -158 6 -207 -19 l-42 -22 -37 22 c-30 17 -55 22 -123 24 -47 1
-103 0 -123 -3z m235 -40 l32 -19 3 -186 2 -186 -80 35 c-94 40 -206 54 -285
34 -26 -7 -50 -10 -53 -7 -5 6 105 317 118 330 30 30 210 29 263 -1z"/>
<path d="M2622 3683 c-141 -409 -142 -413 -119 -413 12 0 42 5 67 11 82 19
256 14 354 -11 94 -23 118 -23 236 4 41 10 112 18 158 18 46 0 81 2 78 5 -7 8
-168 13 -179 6 -6 -4 -28 -8 -50 -9 -22 -2 -54 -8 -71 -13 -48 -16 -85 -14
-161 8 -88 27 -237 36 -335 23 -41 -6 -76 -9 -78 -7 -3 2 28 97 67 211 43 125
68 211 62 217 -5 5 -17 -15 -29 -50z"/>
<path d="M1222 2553 l2 -218 6 200 5 200 98 -192 c53 -106 102 -193 107 -193
5 0 54 87 107 193 l98 192 5 -200 6 -200 2 218 c1 128 -2 217 -7 217 -5 0 -11
-6 -13 -12 -2 -7 -48 -101 -102 -208 l-99 -195 -103 208 c-57 114 -106 207
-109 207 -3 0 -4 -98 -3 -217z"/>
<path d="M2060 2555 l0 -215 78 0 c92 0 142 20 189 73 70 80 70 198 0 283 -44
53 -96 74 -189 74 l-78 0 0 -215z m201 177 c43 -23 59 -38 82 -82 37 -71 34
-137 -9 -206 -41 -67 -96 -94 -191 -94 l-73 0 0 205 0 205 69 0 c56 0 79 -5
122 -28z"/>
<path d="M2440 2555 l0 -215 125 0 125 0 0 40 0 40 -85 0 -85 0 0 175 0 175
-40 0 -40 0 0 -215z"/>
<path d="M2760 2555 l0 -215 130 0 130 0 0 40 0 40 -90 0 -90 0 0 50 0 50 65
0 65 0 0 35 0 35 -67 0 -68 0 0 50 0 50 88 0 87 0 0 40 0 40 -125 0 -125 0 0
-215z"/>
<path d="M3215 2751 c-88 -40 -145 -140 -129 -228 9 -56 50 -120 94 -149 56
-37 149 -44 213 -16 26 12 47 25 47 30 0 5 -11 19 -24 31 -19 18 -28 20 -43
13 -49 -26 -118 -17 -160 21 -31 29 -37 41 -40 88 -8 90 46 149 135 149 24 0
52 -5 63 -11 22 -11 42 -1 60 33 9 16 4 21 -33 38 -54 25 -131 25 -183 1z"/>
<path d="M3500 2730 l0 -40 55 0 55 0 0 -175 0 -175 40 0 40 0 0 175 0 175 50
0 50 0 0 40 0 40 -145 0 -145 0 0 -40z"/>
<path d="M3867 2763 c-4 -3 -7 -100 -7 -215 l0 -208 40 0 40 0 0 215 0 215
-33 0 c-19 0 -37 -3 -40 -7z"/>
<path d="M4047 2668 c25 -57 67 -152 94 -213 46 -107 49 -110 82 -113 40 -4
44 1 81 88 16 36 41 92 56 125 59 126 90 198 90 207 0 5 -19 8 -42 6 l-43 -3
-65 -152 c-36 -84 -68 -155 -71 -158 -3 -3 -36 67 -74 155 l-68 160 -43 0 -43
0 46 -102z"/>
<path d="M4640 2685 c-22 -48 -40 -89 -40 -91 0 -2 -14 -34 -31 -71 -46 -100
-79 -175 -79 -179 0 -2 20 -4 43 -4 42 0 45 2 60 40 l15 40 107 0 107 0 15
-40 c15 -38 18 -40 59 -40 37 0 42 3 37 17 -4 9 -46 105 -94 213 l-87 195 -36
3 -36 3 -40 -86z"/>
<path d="M4508 500 c-70 -42 -124 -81 -120 -85 4 -5 2 -5 -4 -2 -6 3 -40 -9
-76 -28 -219 -117 -592 -235 -883 -279 -49 -8 -76 -14 -58 -15 131 -4 620 120
758 192 22 11 46 20 53 18 8 -1 21 3 30 10 14 11 15 11 5 0 -21 -24 -349 -151
-391 -151 -15 0 -15 -2 -2 -11 12 -8 11 -9 -5 -5 -11 3 -45 -1 -75 -9 -161
-44 -461 -95 -560 -95 -21 0 -42 -5 -45 -10 -4 -6 -10 -8 -15 -5 -5 3 -12 0
-16 -6 -5 -9 16 -10 82 -4 49 4 96 8 104 7 8 0 44 5 80 10 36 6 75 10 87 9 12
0 25 4 28 9 3 5 12 7 20 4 8 -3 20 -2 27 2 7 4 19 9 28 9 67 7 119 18 114 26
-3 6 5 7 20 3 17 -4 26 -2 26 6 0 6 5 8 10 5 6 -4 34 2 63 11 28 10 55 17 58
16 10 -2 262 87 268 96 3 4 11 7 16 7 22 0 144 58 139 66 -3 5 3 6 12 2 12 -4
15 -3 10 5 -4 8 -2 10 8 6 20 -7 58 14 50 28 -4 7 -3 8 4 4 6 -4 22 -1 34 6
13 7 25 12 28 13 3 0 20 10 38 23 17 13 32 21 32 17 0 -13 34 14 36 29 3 19 2
19 -31 4 -14 -6 -25 -18 -26 -27 0 -11 -2 -12 -6 -3 -4 10 -8 10 -19 1 -8 -6
-11 -15 -8 -20 3 -5 -2 -6 -10 -3 -8 3 -29 -2 -46 -11 -18 -9 -34 -14 -38 -11
-3 3 0 6 7 6 7 0 9 5 6 10 -4 6 -3 9 2 8 17 -6 73 25 66 36 -3 6 -2 8 2 4 15
-14 239 127 229 143 -8 13 -8 13 -146 -71z"/>
</g>
</svg>
