<svg xmlns="http://www.w3.org/2000/svg" xmlns:xlink="http://www.w3.org/1999/xlink" width="1080" zoomAndPan="magnify" viewBox="0 0 810 809.999993" height="1080" preserveAspectRatio="xMidYMid meet" version="1.0"><defs><g/></defs><rect x="-81" width="972" fill="#ffffff" y="-80.999999" height="971.999992" fill-opacity="1"/><rect x="-81" width="972" fill="#ffffff" y="-80.999999" height="971.999992" fill-opacity="1"/><rect x="-81" width="972" fill="#ffffff" y="-80.999999" height="971.999992" fill-opacity="1"/><g fill="#5271ff" fill-opacity="1"><g transform="translate(40.003335, 428.252479)"><g><path d="M 31.328125 -87.40625 L 53.78125 -24.015625 L 76.109375 -87.40625 L 99.765625 -87.40625 L 99.765625 0 L 81.703125 0 L 81.703125 -23.890625 L 83.5 -65.125 L 59.90625 0 L 47.546875 0 L 24.015625 -65.078125 L 25.8125 -23.890625 L 25.8125 0 L 7.796875 0 L 7.796875 -87.40625 Z M 31.328125 -87.40625 "/></g></g></g><g fill="#5271ff" fill-opacity="1"><g transform="translate(147.69477, 428.252479)"><g><path d="M 36.5625 1.203125 C 27.03125 1.203125 19.273438 -1.71875 13.296875 -7.5625 C 7.316406 -13.40625 4.328125 -21.191406 4.328125 -30.921875 L 4.328125 -32.59375 C 4.328125 -39.113281 5.585938 -44.945312 8.109375 -50.09375 C 10.628906 -55.238281 14.195312 -59.203125 18.8125 -61.984375 C 23.4375 -64.765625 28.710938 -66.15625 34.640625 -66.15625 C 43.523438 -66.15625 50.515625 -63.351562 55.609375 -57.75 C 60.710938 -52.144531 63.265625 -44.203125 63.265625 -33.921875 L 63.265625 -26.828125 L 21.90625 -26.828125 C 22.46875 -22.585938 24.160156 -19.1875 26.984375 -16.625 C 29.804688 -14.0625 33.378906 -12.78125 37.703125 -12.78125 C 44.378906 -12.78125 49.597656 -15.203125 53.359375 -20.046875 L 61.890625 -10.5 C 59.285156 -6.820312 55.757812 -3.953125 51.3125 -1.890625 C 46.875 0.171875 41.957031 1.203125 36.5625 1.203125 Z M 34.578125 -52.109375 C 31.128906 -52.109375 28.332031 -50.945312 26.1875 -48.625 C 24.050781 -46.300781 22.6875 -42.976562 22.09375 -38.65625 L 46.21875 -38.65625 L 46.21875 -40.03125 C 46.144531 -43.875 45.101562 -46.847656 43.09375 -48.953125 C 41.09375 -51.054688 38.253906 -52.109375 34.578125 -52.109375 Z M 34.578125 -52.109375 "/></g></g></g><g fill="#5271ff" fill-opacity="1"><g transform="translate(214.146508, 428.252479)"><g><path d="M 3.96875 -32.953125 C 3.96875 -43.078125 6.238281 -51.140625 10.78125 -57.140625 C 15.320312 -63.148438 21.53125 -66.15625 29.40625 -66.15625 C 35.726562 -66.15625 40.953125 -63.789062 45.078125 -59.0625 L 45.078125 -92.203125 L 62.484375 -92.203125 L 62.484375 0 L 46.828125 0 L 45.984375 -6.90625 C 41.660156 -1.5 36.097656 1.203125 29.296875 1.203125 C 21.648438 1.203125 15.515625 -1.804688 10.890625 -7.828125 C 6.273438 -13.859375 3.96875 -22.234375 3.96875 -32.953125 Z M 21.3125 -31.6875 C 21.3125 -25.613281 22.367188 -20.953125 24.484375 -17.703125 C 26.609375 -14.460938 29.691406 -12.84375 33.734375 -12.84375 C 39.097656 -12.84375 42.878906 -15.101562 45.078125 -19.625 L 45.078125 -45.265625 C 42.921875 -49.785156 39.179688 -52.046875 33.859375 -52.046875 C 25.492188 -52.046875 21.3125 -45.257812 21.3125 -31.6875 Z M 21.3125 -31.6875 "/></g></g></g><g fill="#004aad" fill-opacity="1"><g transform="translate(273.707714, 429.697529)"><g><path d="M 9.09375 -84.59375 L 36.265625 -84.59375 L 36.265625 -21.640625 L 79.671875 -21.640625 L 79.671875 0 L 9.09375 0 Z M 9.09375 -84.59375 "/></g></g></g><g fill="#004aad" fill-opacity="1"><g transform="translate(355.71395, 429.697529)"><g><path d="M 40.9375 -66.390625 C 52.820312 -66.390625 61.898438 -63.601562 68.171875 -58.03125 C 74.441406 -52.457031 77.578125 -43.929688 77.578125 -32.453125 L 77.578125 -28.28125 L 28.890625 -28.28125 C 28.890625 -23.601562 29.9375 -20.078125 32.03125 -17.703125 C 34.125 -15.328125 37.421875 -14.140625 41.921875 -14.140625 C 46.023438 -14.140625 49.039062 -15 50.96875 -16.71875 C 52.894531 -18.4375 53.859375 -20.734375 53.859375 -23.609375 L 77.578125 -23.609375 C 77.578125 -15.734375 74.582031 -9.582031 68.59375 -5.15625 C 62.613281 -0.738281 53.890625 1.46875 42.421875 1.46875 C 30.367188 1.46875 21.019531 -1.335938 14.375 -6.953125 C 7.738281 -12.566406 4.421875 -21.066406 4.421875 -32.453125 C 4.421875 -43.609375 7.660156 -52.050781 14.140625 -57.78125 C 20.617188 -63.519531 29.550781 -66.390625 40.9375 -66.390625 Z M 41.921875 -50.78125 C 34.222656 -50.78125 29.921875 -47.132812 29.015625 -39.84375 L 52.875 -39.84375 C 52.875 -43.195312 51.910156 -45.859375 49.984375 -47.828125 C 48.054688 -49.796875 45.367188 -50.78125 41.921875 -50.78125 Z M 41.921875 -50.78125 "/></g></g></g><g fill="#004aad" fill-opacity="1"><g transform="translate(437.720186, 429.697529)"><g><path d="M 40.9375 -66.390625 C 51.59375 -66.390625 60.21875 -64.113281 66.8125 -59.5625 C 73.414062 -55.019531 76.71875 -48.078125 76.71875 -38.734375 L 53 -38.734375 C 53 -46.109375 48.976562 -49.796875 40.9375 -49.796875 C 32.90625 -49.796875 28.890625 -45.164062 28.890625 -35.90625 L 28.890625 -28.890625 C 28.890625 -19.710938 33.070312 -15.125 41.4375 -15.125 C 49.789062 -15.125 53.96875 -18.894531 53.96875 -26.4375 L 76.71875 -26.4375 C 76.71875 -17.007812 73.414062 -10 66.8125 -5.40625 C 60.21875 -0.820312 51.59375 1.46875 40.9375 1.46875 C 29.550781 1.46875 20.617188 -1.394531 14.140625 -7.125 C 7.660156 -12.863281 4.421875 -21.304688 4.421875 -32.453125 C 4.421875 -43.609375 7.660156 -52.050781 14.140625 -57.78125 C 20.617188 -63.519531 29.550781 -66.390625 40.9375 -66.390625 Z M 40.9375 -66.390625 "/></g></g></g><g fill="#004aad" fill-opacity="1"><g transform="translate(519.726423, 429.697529)"><g><path d="M 50.65625 -64.921875 L 50.65625 -48.328125 L 36.890625 -48.328125 L 36.890625 -23.609375 C 36.890625 -20.660156 37.378906 -18.507812 38.359375 -17.15625 C 39.347656 -15.800781 41.148438 -15.125 43.765625 -15.125 L 50.65625 -15.125 L 50.65625 -0.734375 C 48.6875 -0.078125 46.144531 0.453125 43.03125 0.859375 C 39.914062 1.265625 37.210938 1.46875 34.921875 1.46875 C 27.703125 1.46875 22.144531 0.160156 18.25 -2.453125 C 14.363281 -5.078125 12.421875 -9.546875 12.421875 -15.859375 L 12.421875 -48.328125 L 3.3125 -48.328125 L 3.3125 -64.921875 L 13.40625 -64.921875 L 18.6875 -84.59375 L 36.890625 -84.59375 L 36.890625 -64.921875 Z M 50.65625 -64.921875 "/></g></g></g><g fill="#004aad" fill-opacity="1"><g transform="translate(574.315285, 429.697529)"><g><path d="M 8.234375 -72.546875 L 8.234375 -89.140625 L 32.703125 -89.140625 L 32.703125 -72.546875 Z M 8.234375 0 L 8.234375 -64.921875 L 32.703125 -64.921875 L 32.703125 0 Z M 8.234375 0 "/></g></g></g><g fill="#004aad" fill-opacity="1"><g transform="translate(615.256919, 429.697529)"><g><path d="M 24.59375 0 L 0 -64.921875 L 26.3125 -64.921875 L 38.234375 -24.46875 L 39.09375 -24.46875 L 51.03125 -64.921875 L 75.125 -64.921875 L 50.28125 0 Z M 24.59375 0 "/></g></g></g><g fill="#004aad" fill-opacity="1"><g transform="translate(690.378091, 429.697529)"><g><path d="M 39.46875 -66.390625 C 49.382812 -66.390625 57.457031 -64.726562 63.6875 -61.40625 C 69.914062 -58.09375 73.03125 -52.707031 73.03125 -45.25 L 73.03125 -19.921875 C 73.03125 -18.523438 73.359375 -17.375 74.015625 -16.46875 C 74.671875 -15.570312 75.65625 -15.125 76.96875 -15.125 L 81.390625 -15.125 L 81.390625 -0.984375 C 81.148438 -0.816406 80.515625 -0.546875 79.484375 -0.171875 C 78.460938 0.191406 77.007812 0.554688 75.125 0.921875 C 73.238281 1.285156 71.066406 1.46875 68.609375 1.46875 C 63.859375 1.46875 59.941406 0.753906 56.859375 -0.671875 C 53.785156 -2.109375 51.675781 -4.097656 50.53125 -6.640625 C 47.414062 -4.179688 43.929688 -2.210938 40.078125 -0.734375 C 36.222656 0.734375 31.71875 1.46875 26.5625 1.46875 C 11.3125 1.46875 3.6875 -4.59375 3.6875 -16.71875 C 3.6875 -23.03125 5.382812 -27.84375 8.78125 -31.15625 C 12.1875 -34.476562 17.085938 -36.753906 23.484375 -37.984375 C 29.878906 -39.222656 38.238281 -39.84375 48.5625 -39.84375 L 48.5625 -43.03125 C 48.5625 -45.570312 47.679688 -47.5 45.921875 -48.8125 C 44.160156 -50.125 41.882812 -50.78125 39.09375 -50.78125 C 36.550781 -50.78125 34.359375 -50.328125 32.515625 -49.421875 C 30.671875 -48.523438 29.75 -47.09375 29.75 -45.125 L 29.75 -44.625 L 5.65625 -44.625 C 5.570312 -45.039062 5.53125 -45.617188 5.53125 -46.359375 C 5.53125 -52.503906 8.457031 -57.378906 14.3125 -60.984375 C 20.175781 -64.585938 28.5625 -66.390625 39.46875 -66.390625 Z M 48.5625 -28.28125 C 41.59375 -28.28125 36.445312 -27.519531 33.125 -26 C 29.8125 -24.488281 28.15625 -22.460938 28.15625 -19.921875 C 28.15625 -15.816406 30.941406 -13.765625 36.515625 -13.765625 C 39.710938 -13.765625 42.519531 -14.625 44.9375 -16.34375 C 47.351562 -18.070312 48.5625 -20.207031 48.5625 -22.75 Z M 48.5625 -28.28125 "/></g></g></g></svg>